<svg xmlns="http://www.w3.org/2000/svg" viewBox="0 0 100 100">
  <!-- 背景圆形 -->
  <circle cx="50" cy="50" r="45" fill="#3B82F6" stroke="#1E40AF" stroke-width="2"/>
  
  <!-- 大脑图标 -->
  <path d="M30 40 Q35 35 40 40 Q45 35 50 40 Q55 35 60 40 Q65 35 70 40 Q75 45 70 50 Q75 55 70 60 Q65 65 60 60 Q55 65 50 60 Q45 65 40 60 Q35 65 30 60 Q25 55 30 50 Q25 45 30 40 Z" fill="white"/>
  
  <!-- 连接线 -->
  <path d="M35 45 L65 45 M35 55 L65 55" stroke="white" stroke-width="2" stroke-linecap="round"/>
  
  <!-- 小圆点 -->
  <circle cx="40" cy="45" r="2" fill="#3B82F6"/>
  <circle cx="60" cy="45" r="2" fill="#3B82F6"/>
  <circle cx="40" cy="55" r="2" fill="#3B82F6"/>
  <circle cx="60" cy="55" r="2" fill="#3B82F6"/>
</svg>
